<svg width="541" height="58" viewBox="0 0 541 191" fill="none" xmlns="http://www.w3.org/2000/svg">
<path d="M229.004 9.976H204.765V79.1025H229.004C251.157 79.1025 265.561 65.5347 265.561 44.6383C265.561 23.6428 251.157 9.976 229.004 9.976ZM218.673 67.3173V21.6621H228.507C243.11 21.6621 251.355 30.2782 251.355 44.6383C251.355 58.9983 243.11 67.3173 228.507 67.3173H218.673Z" fill="black"/>
<path d="M324.151 51.9669C324.151 60.946 321.767 67.8785 316.999 72.7642C312.297 77.65 305.873 80.0928 297.727 80.0928C292.694 80.0928 288.19 79.0034 284.217 76.8247C280.309 74.6459 277.23 71.4768 274.978 67.3173C272.726 63.0918 271.6 57.975 271.6 51.9669C271.6 42.9877 273.952 36.0882 278.654 31.2685C283.356 26.4488 289.813 24.039 298.025 24.039C303.124 24.039 307.628 25.1284 311.535 27.3071C315.442 29.4859 318.522 32.655 320.774 36.8145C323.025 40.9079 324.151 45.9587 324.151 51.9669ZM286.7 51.9669C286.7 57.3148 287.561 61.3752 289.283 64.1482C291.071 66.8551 293.952 68.2086 297.925 68.2086C301.833 68.2086 304.647 66.8551 306.369 64.1482C308.157 61.3752 309.052 57.3148 309.052 51.9669C309.052 46.619 308.157 42.6246 306.369 39.9836C304.647 37.2767 301.8 35.9232 297.826 35.9232C293.919 35.9232 291.071 37.2767 289.283 39.9836C287.561 42.6246 286.7 46.619 286.7 51.9669ZM297.826 99.8998C295.574 99.8998 293.654 99.3716 292.064 98.3153C290.541 97.2589 289.78 95.3772 289.78 92.6703C289.78 89.8973 290.541 87.9826 292.064 86.9262C293.654 85.9359 295.574 85.4407 297.826 85.4407C300.012 85.4407 301.899 85.9359 303.489 86.9262C305.078 87.9826 305.873 89.8973 305.873 92.6703C305.873 95.3772 305.078 97.2589 303.489 98.3153C301.899 99.3716 300.012 99.8998 297.826 99.8998ZM306.667 3.24162C307.595 4.69413 308.787 6.34472 310.244 8.19337C311.767 9.976 313.323 11.7256 314.913 13.4422C316.502 15.1588 317.893 16.6113 319.085 17.7998V19.0872H309.25C307.528 18.0308 305.641 16.8094 303.588 15.4229C301.535 13.9704 299.647 12.3528 297.925 10.5702C296.204 12.3528 294.349 13.9374 292.362 15.3239C290.376 16.7104 288.521 17.9648 286.799 19.0872H276.965V17.7998C278.223 16.5453 279.614 15.0928 281.137 13.4422C282.727 11.7256 284.25 9.976 285.707 8.19337C287.23 6.34472 288.455 4.69413 289.382 3.24162H306.667Z" fill="black"/>
<path d="M340.556 17.7007C345.424 17.7007 349 14.1355 349 9.57986C349 5.02425 345.424 1.45898 340.556 1.45898C335.49 1.45898 331.914 5.02425 331.914 9.57986C331.914 14.1355 335.49 17.7007 340.556 17.7007ZM333.503 24.237V88.2137C333.503 91.878 332.013 93.4625 327.741 93.4625H323.768V105.248H329.927C340.556 105.248 347.411 100.791 347.411 88.1146V24.237H333.503Z" fill="black"/>
<path d="M359.164 79.1025H373.072V24.237H359.164V79.1025ZM366.218 17.7007C371.085 17.7007 374.761 14.1355 374.761 9.57986C374.761 5.02425 371.085 1.45898 366.218 1.45898C361.251 1.45898 357.674 5.02425 357.674 9.57986C357.674 14.1355 361.251 17.7007 366.218 17.7007Z" fill="black"/>
<path d="M461.814 79.1025H475.722V46.9161C475.722 31.7637 466.384 23.4448 453.172 23.4448C445.125 23.4448 437.873 27.7033 434.297 33.9425C430.522 27.1091 423.469 23.4448 414.926 23.4448C408.071 23.4448 402.21 26.3168 398.733 30.8724V24.237H384.826V79.1025H398.733V48.7977C398.733 40.0827 403.601 35.527 411.151 35.527C418.502 35.527 423.37 40.0827 423.37 48.7977V79.1025H437.277V48.7977C437.277 40.0827 442.145 35.527 449.595 35.527C456.946 35.527 461.814 40.0827 461.814 48.7977V79.1025Z" fill="black"/>
<path d="M483.356 51.4717C483.356 68.6047 494.482 79.9938 508.39 79.9938C517.131 79.9938 523.39 75.8343 526.668 71.0806V79.1025H540.675V24.237H526.668V32.0608C523.39 27.5052 517.33 23.3457 508.489 23.3457C494.482 23.3457 483.356 34.3386 483.356 51.4717ZM526.668 51.6698C526.668 62.0684 519.714 67.8125 512.065 67.8125C504.615 67.8125 497.562 61.8704 497.562 51.4717C497.562 41.073 504.615 35.527 512.065 35.527C519.714 35.527 526.668 41.2711 526.668 51.6698Z" fill="black"/>
<path d="M247.171 177.987H239.652L211.094 134.33V177.987H203.574V121.334H211.094L239.73 165.186V121.334H247.171V177.987Z" fill="black"/>
<path d="M284.4 178.765C278.686 178.765 274.037 176.898 270.452 173.162C266.868 169.401 265.076 164.382 265.076 158.104V156.781C265.076 152.605 265.868 148.883 267.452 145.614C269.063 142.32 271.297 139.752 274.154 137.91C277.037 136.042 280.154 135.109 283.504 135.109C288.985 135.109 293.244 136.911 296.283 140.517C299.322 144.123 300.842 149.285 300.842 156.003V158.999H272.284C272.387 163.15 273.595 166.509 275.907 169.077C278.245 171.619 281.206 172.89 284.79 172.89C287.335 172.89 289.491 172.371 291.257 171.334C293.024 170.296 294.569 168.921 295.894 167.209L300.296 170.633C296.764 176.055 291.465 178.765 284.4 178.765ZM283.504 141.023C280.595 141.023 278.154 142.086 276.18 144.213C274.206 146.315 272.985 149.272 272.517 153.085H293.634V152.54C293.426 148.883 292.439 146.055 290.673 144.058C288.907 142.034 286.517 141.023 283.504 141.023Z" fill="black"/>
<path d="M326.578 125.692V135.887H334.448V141.451H326.578V167.559C326.578 169.245 326.928 170.516 327.629 171.373C328.331 172.203 329.526 172.618 331.214 172.618C332.045 172.618 333.188 172.462 334.642 172.151V177.987C332.746 178.506 330.902 178.765 329.11 178.765C325.889 178.765 323.461 177.793 321.824 175.847C320.188 173.902 319.37 171.139 319.37 167.559V141.451H311.695V135.887H319.37V125.692H326.578Z" fill="black"/>
<path d="M387.806 168.065L395.91 135.887H403.118L390.845 177.987H385.001L374.755 146.081L364.781 177.987H358.937L346.703 135.887H353.872L362.17 167.404L371.988 135.887H377.794L387.806 168.065Z" fill="black"/>
<path d="M416.153 156.548C416.153 152.423 416.958 148.714 418.568 145.42C420.205 142.125 422.464 139.583 425.347 137.793C428.256 136.003 431.568 135.109 435.282 135.109C441.023 135.109 445.659 137.093 449.191 141.062C452.75 145.031 454.529 150.309 454.529 156.898V157.404C454.529 161.502 453.737 165.186 452.152 168.454C450.594 171.697 448.347 174.226 445.412 176.042C442.503 177.857 439.152 178.765 435.36 178.765C429.646 178.765 425.01 176.781 421.451 172.812C417.919 168.843 416.153 163.591 416.153 157.054V156.548ZM423.399 157.404C423.399 162.073 424.477 165.821 426.633 168.649C428.815 171.476 431.724 172.89 435.36 172.89C439.023 172.89 441.932 171.463 444.087 168.61C446.243 165.731 447.321 161.71 447.321 156.548C447.321 151.931 446.217 148.195 444.01 145.342C441.828 142.463 438.919 141.023 435.282 141.023C431.724 141.023 428.854 142.437 426.672 145.264C424.49 148.091 423.399 152.138 423.399 157.404Z" fill="black"/>
<path d="M491.524 142.346C490.433 142.164 489.252 142.073 487.979 142.073C483.252 142.073 480.044 144.084 478.356 148.104V177.987H471.148V135.887H478.161L478.278 140.75C480.641 136.989 483.992 135.109 488.33 135.109C489.732 135.109 490.797 135.29 491.524 135.653V142.346Z" fill="black"/>
<path d="M517.533 158.493L513.013 163.201V177.987H505.806V118.222H513.013V154.369L516.871 149.739L530 135.887H538.766L522.364 153.474L540.675 177.987H532.221L517.533 158.493Z" fill="black"/>
<path d="M95.4024 161.239C135.446 161.239 167.908 128.84 167.908 88.8722C167.908 48.9048 135.446 16.5049 95.4024 16.5049C55.3585 16.5049 22.8965 48.9048 22.8965 88.8722C22.8965 128.84 55.3585 161.239 95.4024 161.239Z" fill="url(#paint0_linear_3864_3670)"/>
<path d="M181.258 30.1391C194.217 1.69167 165.591 5.42633 137.38 29.9329C138.016 30.5677 141.196 33.1069 143.104 34.3765C176.017 14.0569 165.049 37.4051 158.985 48.3655C152.923 59.3257 97.9851 126.935 54.6784 152.673C20.0331 173.263 30.4421 148.919 39.4334 134.675L34.9813 128.962L26.3434 141.343C15.5785 158.42 1.96792 189.225 33.6437 175.825C91.551 149.471 158.985 79.0297 181.258 30.1391Z" fill="url(#paint1_linear_3864_3670)"/>
<g filter="url(#filter0_i_3864_3670)">
<path d="M86.3071 128.865L94.1684 121.882C96.8414 124.337 99.4299 126.673 101.898 128.865L94.1684 135.695C91.6358 133.55 89.0085 131.271 86.3071 128.865Z" fill="url(#paint2_linear_3864_3670)"/>
</g>
<path d="M52.2067 30.8989L47.5405 34.3288C34.5243 26.244 12.937 17.9632 30.7177 49.5185C43.7438 72.6357 71.888 101.416 94.168 121.881C96.8409 124.337 99.4295 126.672 101.897 128.864C106.938 133.341 111.475 137.218 115.201 140.289C141.232 159.643 173.036 176.221 150.736 135.847L153.916 131.403C174.177 150.88 202.262 208.887 125.147 159.276C121.329 156.819 109.48 148.67 94.168 135.694C91.6353 133.549 89.0079 131.27 86.3067 128.864C62.7865 107.914 33.6517 77.2535 12.5441 39.4738C-7.4052 3.76703 14.9998 0.397119 52.2067 30.8989Z" fill="url(#paint3_linear_3864_3670)"/>
<defs>
<filter id="filter0_i_3864_3670" x="85.4097" y="121.882" width="16.4882" height="14.7109" filterUnits="userSpaceOnUse" color-interpolation-filters="sRGB">
<feFlood flood-opacity="0" result="BackgroundImageFix"/>
<feBlend mode="normal" in="SourceGraphic" in2="BackgroundImageFix" result="shape"/>
<feColorMatrix in="SourceAlpha" type="matrix" values="0 0 0 0 0 0 0 0 0 0 0 0 0 0 0 0 0 0 127 0" result="hardAlpha"/>
<feOffset dx="-0.897419" dy="0.897419"/>
<feGaussianBlur stdDeviation="0.448709"/>
<feComposite in2="hardAlpha" operator="arithmetic" k2="-1" k3="1"/>
<feColorMatrix type="matrix" values="0 0 0 0 0.0999942 0 0 0 0 0.0802951 0 0 0 0 0.154167 0 0 0 0.16 0"/>
<feBlend mode="normal" in2="shape" result="effect1_innerShadow_3864_3670"/>
</filter>
<linearGradient id="paint0_linear_3864_3670" x1="167.908" y1="74.9066" x2="22.9371" y2="115.678" gradientUnits="userSpaceOnUse">
<stop stop-color="#8D57DE"/>
<stop offset="1" stop-color="#D6D6FC"/>
</linearGradient>
<linearGradient id="paint1_linear_3864_3670" x1="-54.7657" y1="-24.198" x2="365.35" y2="-42.4363" gradientUnits="userSpaceOnUse">
<stop stop-color="#FF8811"/>
<stop offset="1" stop-color="#FF1267"/>
</linearGradient>
<linearGradient id="paint2_linear_3864_3670" x1="74.6533" y1="118.139" x2="145.67" y2="113.343" gradientUnits="userSpaceOnUse">
<stop stop-color="#FF8811"/>
<stop offset="1" stop-color="#FF1267"/>
</linearGradient>
<linearGradient id="paint3_linear_3864_3670" x1="-63.866" y1="-24.1455" x2="357.437" y2="-42.5154" gradientUnits="userSpaceOnUse">
<stop stop-color="#FF8811"/>
<stop offset="1" stop-color="#FF1267"/>
</linearGradient>
</defs>
</svg>
